<svg xmlns="http://www.w3.org/2000/svg" width="2713" height="2713" viewBox="0 0 2713 2713"><title>icon</title><path d="M2,2H2716V2716H2Q2,1359,2,2ZM1090.67,667.16l-11.43,24c-1.37,3.32-2.54,6.73-4.14,9.93-5.75,11.52-11.64,23-17.44,34.47l-5.53,8.06c5.45-1,5.84-4.42,5.26-8.33,1.28-.24,2.56-0.48,3.75-0.63l-4.42,19.54,1,0.48q8.15-17.33,16.29-34.68c4.85-3.75,6.14-9.1,5.59-15.2l-5.36,15.4c-2.88,4.5-5.67,9-8.68,13.45-1,1.42-2,4.87-4.38.94,4.91-9.91,10.12-19.7,14.59-29.8,1.89-4.28,2.24-9.24,3.34-13.82,1.61-.26,3.81,0,4.7-0.9a13.43,13.43,0,0,0,3.67-6.44c0.93-5.52,6.72-10.14,3.2-16.48,3.83-.2,6.61-1.56,7.16-6.3Zm29.88-29.39c-0.81.29-2,.33-2.37,0.9-6.63,10.66-13.24,21.34-19.58,32.16-0.6,1,.58,3.09,1.37,6.64,5.92-10.49,11-19,15.56-27.76,2-3.84,3.15-8.14,4.69-12.23l4.5-6.36-2.2-1Zm827.32,382.1,11.06,3.85-3.1-5.91c3.45,0.28,7.51,2.36,9.38-2.59,1.62-4.31,2.89-8.75,4.83-14.68,2.16,3.12,3.52,4.8,4.58,6.66,1.3,2.29,1.84,5.22,3.6,7,5.19,5.21,6.57,13.47,13.87,17,1,0.47,1.45,2.82,1.43,4.28-0.07,6.65,1.62,11.54,9.3,12.87,2.18,0.38,4,3.2,5.82,5,0.32,0.32.1,1.19,0.13,1.76h-4.81l6.91,6-6.49,1.6c1.08,8.94-1.21,18.84,6.2,27.16l22.06-10c-8.85-7.12-1.46-16.61-4.25-24.53,8.55,5.14,17.39,2.21,26.9,4.1-3.66-6.13-12.55-8-8.82-16.19l6.49-2.07,3.71-18.79c7.08-.27,5.72,5.43,5.66,9,0,3.3-1.4,6.37,2.84,8.43,2.19-4,5.42-7.5,6-11.43a253.19,253.19,0,0,0,2.46-29.33,70.28,70.28,0,0,1,7.36-29.77c2.4,7.79,4.61,13.38,3.81,20.28-0.68,5.86-4.32,13.13,3.78,17.52-8.26,15.21-2.53,30.82-3.42,46.49l6.76,2.3c-0.13-2.62.26-4.5-.43-5.79s-4.07,0-2.77-3.78c1-2.87,4.87-6.71-.4-9.61,1.17-4.1,2.59-8.15,3.41-12.32,0.35-1.81-.68-3.84-0.82-5.79-0.33-4.55-.78-9.18,3.78-15.15,0.44,9.13.65,16,1.14,22.78,0.38,5.25,2.34,10.7,1.4,15.64-1.16,6.11,4,7.33,6,11.2,0-10.12.67-20.06-.23-29.85-0.6-6.56,1.95-12.63.32-19.57-1.72-7.32.83-15.57,0.93-23.42,0.25-19.36.14-38.72,0.24-58.08,0-3.64.55-7.29,0.46-10.92-0.24-9.78-2.78-19.68,1.85-29.17a6.28,6.28,0,0,0,.1-3c-0.78-11-1.55-21.91-2.4-32.85-1.45-18.55-2.81-37.11-4.47-55.64-2.26-25.18-4.58-50.37-7.25-75.51-1.16-10.89-3.57-21.64-4.85-32.52-1.8-15.36-3.08-30.79-4.56-46.19-0.31-3.25.37-7-1-9.68-4.72-9.44-4.82-19.74-6.64-29.73-0.4-2.21-.69-4.85-2-6.41-4.78-5.48-1.91-13.1-5.81-18.85-1.81-2.68,4.82-1,3.41-5.74-1.76-5.9-1.3-12.29-5.82-17.5-1.73-2-2.4-5.36-2.59-8.17-0.62-9,.83-18.1-2.14-27-3.38-10.13-2.18-21.26-7.48-31.21-2.28-4.28-1.78-10-5.69-14.1-1.12-1.17-.87-3.7-1.13-5.62-0.44-3.27-.3-6.72-1.27-9.82-4.55-14.51-11.32-28-19-41.14-4.64-7.95-8.5-16.37-12.4-24.73-2.58-5.55-4.26-11.53-7-17-3.9-7.92-8.41-15.54-12.58-23.33-7.27-13.56-15.45-26.45-26.67-37.18-3.54-3.38-7.07-6.78-10.45-10.31s-6.59-7.33-9.92-11c-2-2.19-4.16-4.23-6.13-6.45-2.82-3.16-5.13-6.9-8.36-9.55-14.89-12.24-29.87-24.38-45.12-36.16-9.44-7.29-19.22-14.2-29.25-20.65-7.44-4.77-15.75-8.22-23.58-12.2-8.51-4.32-16.08-10.88-25.46-14.05a2,2,0,0,1-.56-0.81l-2.4-.75c-3.88-5.92-10.14-6.48-16.34-7.71-5.38-1.06-10.56-3.19-15.8-4.95-1.22-.41-2.25-1.61-3.47-1.81-12-1.94-23.1-7.5-35.7-7.15a31.22,31.22,0,0,1-17.2-4.61c-7.55-5-15.18-8.86-24.11-10.11-4.1,4.88-8.15,5.44-10.25.55-2-4.66-5.11-5.55-9.2-6-4.84-.57-10-0.45-14.43-2.08s-8.39-3.62-13.34-2.6c-1.73.36-4.39-.08-5.52-1.23-4.41-4.5-9.81-3.18-15-3.39a40.1,40.1,0,0,1-8.59-.9c-9.51-2.52-18.82-6.71-28.46-7.66A191.16,191.16,0,0,1,1557.7,122a15.08,15.08,0,0,0-3,0c-15.45-.8-30.9-1.79-46.37-2.33-4.81-.17-9.67.78-14.49,1.37-5.81.71-11.58,2-17.41,2.29-11.34.57-22.7,0.61-36,.92l7.33,6.6c-9.17.93-16.59,5.66-24.87,3.85-11.28-2.47-21.5,3.4-32.58,3.43-6.78,0-14.09,3.29-20.19,6.81-6.31,3.64-15.84-.4-19.71,8.55-0.21.48-1.83,0.39-2.8,0.48-18.94,1.66-34.86,11.26-51.27,19.54-7.53,3.8-14.71,8.53-23.81,4.14-2-.94-5-0.41-7.29.36a102.18,102.18,0,0,0-11.8,5.25c-13.38,6.54-26.77,13-40,19.81-3.4,1.74-6.3,4.43-9.43,6.69l0.26-.24c-4,2.31-8.06,4.41-11.85,7-11.46,7.77-22.73,15.83-34.22,23.55-8.79,5.9-16.32,13.09-24,20.34-16.57,15.63-34.75,29.57-51.13,45.38-10.37,10-19,21.92-27.82,33.41-11.75,15.27-23.22,30.76-34.21,46.57-3.17,4.55-5.36,9.52-12.34,11.83l-3.41-14.43-2-.24-6.45,16.42,5,3.37c-2,2.41-7.09-.57-6.48,5.77,0.27,2.79-3.3,9.38-10,6.36-0.46-.21-1.49.85-3.13,1.85l7.66,2.84c-5.41,9.76-10.39,18.82-15.48,27.83-0.89,1.57-1.94,3.7-3.38,4.2-7,2.41-1.78,6.14-1.18,9.06-5.41,3.85-12.06,6.1-12.48,14.21-0.07,1.38-2.1,3.09-3.62,3.9-9.42,5-14,13.92-16.53,23.29-3.13,11.38-9,21.36-13.77,31.9-2.77,6.13-6.67,11.74-10.36,18.1l-5.53,1.5c0.7,3,2.48,6.34,1.56,7.46-3,3.64-7,6.46-10.87,9.87,1,6.3,1.31,6.6-3,10.53-2.71,2.45-2.45,9.73-9.23,6.35a7.86,7.86,0,0,0-.71,1l7.63,3.45-10.16,3.41c0.84,7.86-2,14.1-6,20.16-5,7.5-11.91,14.83-13.56,23.12a47.22,47.22,0,0,1-11.1,23.05l-3.84-7.1c-1.73,3-2.44,5.34-4,6.73-4.79,4.35-7,9.15-4.9,15.68a5.91,5.91,0,0,1-1.44,5.1c-3.26,2.82-4.9,6.12-6.35,10.18-1.38,3.86-1.68,9.34-7.5,10.56-0.68.14-1.65,2.58-1.29,3.48,2.66,6.58-1.69,9.47-5.85,13.12-3.12,2.73-5.18,6.69-7.64,10.16a3.1,3.1,0,0,0,.06,1.62l3.6,1c-2.62,4.56-5,8.92-7.58,13.12-3.64,5.85-8.38,11.26-9.94,18C792.12,778.34,784.17,791,779,804.92c-1.62,4.37-2.47,9.48-5.36,12.77s-3.76,6.38-4.86,10.28c-1.63,5.77-3.8,11.49-5.85,17.16-3.93,10.85-10.28,20.7-14.23,31.67a23.32,23.32,0,0,1-9,11c-4.38,2.77-6.2,5-4.53,10.13,0.59,1.8-.4,4.36-1.24,6.33-2.89,6.82-7,13.28-8.88,20.35-4.47,17.21-14.63,32.23-18.37,49.67-0.38,1.77-1.89,3.33-3,4.9-0.92,1.31-3,2.65-2.88,3.73,1.35,9.38-6.19,15.64-8,23.84a11.89,11.89,0,0,1-1,3.7,13.41,13.41,0,0,1-2.89,2.57l4.17,2.87c-9.45,6.14-7.13,16.9-11.38,25.19-5,9.73-6.73,21.09-10.25,31.62-0.68,2-3.07,3.53-4.06,4.61,0,3.55,1.34,7.85-.25,10.07-5,7-6.65,15.1-8.66,22.91-7.88,30.59-15.58,61.25-22.34,92.11-5.24,23.9-9.26,48.07-13.26,72.22-2.21,13.35-3.3,26.88-4.86,40.33-1.41,12.18-3.07,24.34-4.08,36.55-1.44,17.54-2.11,35.15-3.65,52.67-0.93,10.52-1,21.2,5.57,29.5,4.2,5.32,3.94,10.06,3.54,15.56-0.71,9.6-1.64,19.18-2.26,28.79-0.41,6.32-.85,12.71,4.73,17.58,1.08,0.94,1.5,2.94,1.69,4.52,0.72,5.84.23,12.05,2.1,17.46,1.65,4.77-1.6,11.64,5.4,14.35h0c2.13,11.91,3,24.21,6.69,35.65,5.34,16.78,12.7,32.91,19,49.4,1.64,4.28,3.44,7.91,8.67,7.84-0.77,7.78.67,14,8.71,16.73,1.06,3.77,2.09,7.56,7,8.38,2.2-7-4.93-5.4-7.21-8.13l-0.85-5.39-0.28.05,14.35,4.88c-2.07,9.82,2.87,12.79,11.24,12.86,1.72,0,3.42,1.7,5.08,2.59-4,10.62,2,18,7.38,26.24l-5.78,2.05c1.05,4.31,10.4,3.74,5.87,11.33l-5.79-2.7c1.19,13,4.83,17.18,14.74,17.77l-0.18-.3-2.9,6.18c10.64,13.71,21,27.19,31.53,40.53,2.78,3.53,6.23,6.52,9.16,9.94,2.54,3,4.59,6.39,7.18,9.33,3.65,4.13,7.49,8.12,11.46,11.94a51.42,51.42,0,0,0,8.46,6.86c25.52,15.71,51.21,31.14,76.63,47,6.25,3.9,13.09,6.67,19.22,10.39,13.83,8.41,28.95,14.48,42.23,23.89,3.12,2.21,7.92,2,11.19,2.81,2.63,2.27,4.72,4.6,7.28,6.2,11.21,7,22.62,13.69,33.81,20.73,7.25,4.56,13.73,10.7,21.45,14.13,34.06,15.11,65.66,34.65,97.91,53,1.58,0.9,4.89,1.86,5.23,1.35,3.41-5.11,5-1.54,7.08,1.08,1.38,1.77,2.71,4.32,4.56,4.88,13.2,4,23.86,16,39.4,12.64,0.9-.19,1.95.36,2.94,0.46,6.21,0.62,12.44,1.8,18.63,1.65,9.21-.21,18.4-1.42,27.6-2.11,6.92-.52,13.86-0.75,20.77-1.37,8.87-.79,17.71-1.88,26.57-2.77,10.06-1,20.1-2.2,30.18-2.83,5.84-.37,10.37-4.36,17-3.91,5.2,0.36,11.11-3.32,17.19-2.71a1.64,1.64,0,0,0,.91-0.37c3.24-2.15,6.45-3.34,10.15-.73,0.75,0.53,3.42,0,3.49-.45,0.76-3.89,4-2.89,6.33-3.32,11.74-2.25,23.77-2.22,35.1-7.52,8.9-4.16,19-5.77,28.41-8.86,7.19-2.36,14.2-7.42,21.28-7.38,7.68,0,12.83-4.46,19-6.55,9.11-3.07,17.11-9.39,25.72-14.05,5-2.71,11.63-1.1,16.08-5.63,3.62,2.17,6.28-.22,8.62-2.25,7.5-6.51,15.4-11.34,26-11.06,3.22,0.09,7.1-2.27,9.62-4.64,2.26-2.12,3.05-5.8,4.52-8.83,1,0.47,2.8,2,3.77,1.57,6.62-2.73,13.44-5.15,19.8-8.19,5.17-2.47,11.54-5.56,13.14-12.66a2.88,2.88,0,0,1,2-1.65c9.6-1.16,16.26-8,24.09-12.52,6.54-3.75,12.21-9,18.76-12.75,6.21-3.53,9.75-9.92,16.82-12.86,8-3.33,15-9.29,22.2-14.37,8.06-5.66,17.21-10.5,23.48-17.76,5.42-6.28,12.29-7.36,18.4-11.51,2.1,9.19-1.32,16.63-2.73,24.41-4,21.82-7.29,43.76-10.94,65.64-0.49,2.93-1.35,5.8-2.13,8.67-2.91,10.85-6.66,21.54-8.6,32.56-3.1,17.66-7.48,35-9.26,53.05-1.81,18.41-6.77,36.53-10.57,54.73q-5.65,27.07-11.77,54-8.23,36.24-16.83,72.4c-4.18,17.59-9.52,35-12.68,52.72-2.41,13.52-9.77,25.94-8.68,40.17,0.09,1.21-.81,2.51-1.29,3.75-5.36,13.84-7.43,28.61-12.33,42.66-4.77,13.66-6.6,28.31-10.37,42.35-2.15,8-2.31,16.26-6,24.17-2.24,4.8-1.86,11.28-4,17-2.91,7.64-4.43,15.82-6.27,22.71l6.35,1.51,13.74-39.74,2.19,0.49a18.57,18.57,0,0,1,0,4.19c-1.43,6-4.38,12-4.19,17.93,0.21,6.85-2.38,12-5.48,17.36a40.57,40.57,0,0,0-2.27,4.39,14,14,0,0,0-.55,2.9L1571,2418c5.68-14.53,10.36-28.8,8.88-44.58,4.76-1.35,6.79-3.53,6.73-9.07-0.08-7.73,2.33-15.46,8.66-21.44,0.93,1.08,2.06,1.77,2.1,2.52,0.88,15.39-2.59,30.31-5.55,45.22-1.76,8.84-2.72,17.27,2.24,27.47,1.37-4.2,2.27-7,3.22-9.83,1.23-3.63,3-6,7.53-2.43-0.62,4.68-1.22,9.57-1.95,14.45-0.32,2.13-2,5-1.13,6.13,1.31,1.68,4.24,2.1,6.13,2.9,2.28,9.38-7.11,6.56-11.26,10.64,5.09,2.38,9.72,4,13.74,6.57,3.75,2.41,8.67,5.22,7.9,10.4s0.58,12.11-5.83,13.72l2.88,14.33,1.64-6.53,11.34,14.62c2.46-3,5.91-6.18,8-10.07,2.2-4.2,3.08-9.09,4.56-13.78l-5.63-3.88,5.49-1.94c-2.91-7.48,2.33-6,6.06-5.13,5,1.16,7.31-1.4,9.31-5.27,1.13-2.2,2.46-5.65,4.18-6,9.27-1.74,15.33-8,21.79-13.89,0.93-.85,2.83-0.63,4.66-1,0.36,5.2.82,9.68,0.92,14.17,0.09,3.93,1.88,6.28,5.6,7.15,2.24,0.53,4.55.78,7.7,1.3-3.39,8.23,4.88,5.65,8.22,8.55l-4.17,6.57c-6.24-1.48-11.92-3.14-17.72-4.08-3.88-.63-1.26-4.23-2.62-4.87-1.62-.77-4,0.4-6,0-4-.82-6.56,1-5.25,4.46,0.77,2.06,2.76,3.64,4.09,5.51,0.3,0.41.18,1.13,0.11,0.56l-7.52,5.33c3.74,2.62,8.47,2.46,7.39,8.09-0.26,1.34,5.17,3.76,8.19,5.83,1.21-8.57,10.83-7,15.27-12.47l5.43,5.88-4.44,2.8c-1,6.58-1.06,11.68-2.54,16.34-2.09,6.59-4.53,12.91-1.55,20.54,2.06-1.16,4.54-1.69,5.16-3.06,2.94-6.48,6.39-13,7.76-19.87,2.19-11,9.56-16.31,18.38-11.8,7.74,4,15.61,7.69,23.51,11.57l7.1-8.46c1.11-.12,2.42-0.3,3.74-0.39,9.79-.67,11.69-3.67,8.54-13.47a6.08,6.08,0,0,1-.21-2.8c1.07-6.08,2.22-12.15,3.48-18.93l8,3.73c1.27-3.35,2.58-6.19,3.43-9.17,1.25-4.38,1.93-8.94,3.28-13.28,3.67-11.75,10.2-22.21,11.52-35.2,1.42-13.93,6.65-27.49,10.45-41.14,3.85-13.82,8.79-27.3,11.14-41.59,1.26-7.64,5.08-14.86,7.74-22.27l0.9,0.29-0.52,11.66c2.68-1.49,3.7-3.14,4.1-4.93,4.68-20.82,9.07-41.7,13.95-62.47,3.31-14.09,7.32-28,11-42,5-19,9.84-38.12,14.84-57.15,0.87-3.32,2.15-6.53,3.22-9.79,3.17-9.63,6.24-19.29,9.58-28.86a6.36,6.36,0,0,1,2.3-2.65c-1-2.72-2.41-4.56-2.1-6a132.86,132.86,0,0,1,4.1-14.19,9.46,9.46,0,0,1,2.47-3.93c7.88-7.11,10-18.39,4.57-27.58l6.68-1.33c-0.84-2.94-3.83-5.9.63-7.64l3.07,4.67c0.45-4,1.82-7.77.8-8.63-6.47-5.42-.92-10.11-0.32-15.21l5.52,1.47c-0.16-2.73-1.3-5.95-.26-7,7.79-7.82,5.44-18.61,8.38-27.79,2.39-7.48,2.75-15.92,2.46-23.88-0.35-9.58,1.26-17.23,10.08-20.07,0.7-4.14.2-8.71,1.91-9.81,4.61-3,3.83-6.78,2.94-10.42-0.71-2.91-.72-4.89,1.4-7.17,4.81-5.18,5.17-11.21,3.78-18-0.65-3.18.07-8.14,2.2-10.09,5.78-5.3,5.44-11.64,5.65-18.32,0.19-5.94-.91-12.52,6.22-16.09,1.38-.69,2-3.31,2.53-5.18,1.93-7,3.68-14.08,5.46-21.13q18.9-74.56,37.79-149.13c6-23.56,11.88-47.14,17.88-70.7,1.09-4.29,1.86-8.26-4.15-10.69,0,5.42-5.62,7.21-5.53,12.74,0.1,6.42-7.44,3.49-10.51,7.06a13,13,0,0,1-.68-6c4.55-27.15,9.53-54.23,13.66-81.44,3.16-20.84,5.25-41.85,7.86-62.78,1.18-9.45,2.72-18.86,3.62-28.33,1.73-18.12,3.37-36.25,4.54-54.41,0.64-9.87.47-19.82,0.13-29.71-0.07-2,.91-6.51-4.29-5.93-0.58.06-2.25-3.18-2.13-4.78,0.28-3.55,1.38-7,2.33-11.43-5.36,1.35-7.85-1.27-9.38-6-0.58-1.79-3.11-4.21-4.73-4.19-7,.07-9.21-5.44-12.25-9.7-10.72,2-13.73.33-16.48-9.46-0.88-3.15-1.86-5.72-5.44-6.16a12.48,12.48,0,0,0-3.16.56v10.54l-5.76-9.91c-3.4,10.1-10,8.59-16.89,7.3a70.26,70.26,0,0,1-21.91-8.2c-9.3-5.26-18.12-12.55-30.1-10.55-1,.17-2.27-0.81-3.94-1.47-0.57,2.11-1,3.66-1.4,5.23s-0.66,3-1,4.43c-2.76-.19-5.15-1.1-6.65-0.31-4.38,2.3-8.23.12-12.27-.6-5.75-1-6.45-5.83-7.9-10.24-0.47-1.42-2-2.64-3.24-3.62-0.65-.5-1.86-0.26-2.8-0.35l-1.31,6.72-4.64-7.73c-3,12.19-14,10.12-18.64,13.1-2.83,6.94-4.73,11.58-6.61,16.23-0.61,1.51-2.15,3.81-1.65,4.41,3.07,3.69-.82,5.4-2.05,7.5a90.47,90.47,0,0,1-8.68,12.1c-0.9,1.07-3.17,1-5.71,1.69-0.35-17.39,10.19-28.87,18-42.3-4.16-1.2-7.82-5.53-12,0,4.25,5.28,4.09,8.1-2.47,10.66-7.73,3-16.43,3.24-23.88,7.5-0.77.44-2.17-.22-2.42-0.26-0.79,2.91-.9,5.28-2,7-5.52,8.63-11.05,17.28-17.06,25.58-8.78,12.14-19.86,22.81-23.38,37.91-6.75,2.1-11.39,5.78-14.52,11.36-1.12,2-1.91,4.3-3.4,6-7,7.92-14.36,15.57-21.35,23.52q-31.47,35.78-62.75,71.72c-9.6,11-19.08,22.12-28.66,33.14-6.74,7.75-13.59,15.4-20.35,23.14s-14.46,14.93-20,23.51-17.5,12-18.91,23.66c-7,.71-8.74,7.59-13.08,11.4-10.9,9.58-21.58,19.4-32.43,29-11.94,10.62-22.63,23.55-36.27,31.13-19.48,10.83-32.1,29.42-51,40.32a9.74,9.74,0,0,0-2.81,2.79,72.55,72.55,0,0,1-23,20.27c-4.43,2.57-8.25,2.41-12.25-1.77-0.35,6.93-7.22,10.41-5.23,17,0.19,0.65-2,2.28-3.27,3.05-4.89,2.91-10.09,5.35-14.79,8.52-7.06,4.76-14.79,8.18-20.68,15.19-4.95,5.89-12.65,9.78-19.69,13.5-8.07,4.26-15,11.14-25,11.5-2.31.08-4.57,2.5-6.78,4-6.89,4.54-13.64,9.3-20.63,13.67-15.52,9.7-32.09,17.25-49.19,23.74-6.42,2.44-12.58,5.55-18.86,8.36-23.36,10.47-48.17,15.91-73.1,20.88-4.72.94-11-.11-14,2.6-7.84,7.19-18.36,1.64-26.19,7-0.51.35-2.07-1.1-3.22-1.33-6.31-1.25-11.71-4.79-18.47-5.49-19.07-2-39,1.33-56.94-8.39a1.29,1.29,0,0,0-.93-0.22c-9.25,5.13-17.86-2.23-28.45-.25l4.13-6.66-13.36-3.36c-2.23-3.7-5.34-4.89-9.42-3.34-1.55-1.52-2.84-3.72-4.7-4.46-13.5-5.37-22.38-15.81-30.6-27.08-1.75-2.4-4-4.49-5.46-7-5.49-9.45-16.4-14.32-20.54-25.12-1.15-3-7.26-4.09-8.49-7.12s1.69-7.28,1.44-10.91c-0.21-3-2.83-5.68-3.63-8.7-2-7.61-5.05-14.37-12.66-17.78l0.38-8.26c-12.91,1.88-13.64-10.14-19.43-16.53l-2.91,3.83-1.49-.19,1.37-10.57c-5.47-2.67-6.38-7.72-4.26-25.66,2.47,3.87,4.3,8.46,7.59,11.41s-0.2,9.44,6.91,10.66c-13.12-32.36-21.31-65.35-28.36-99.72-7.17,4.71-2.56,9.26-2.27,13.14,0.33,4.33,1.67,8.58,2.8,14-7.9-3.8-2.63-15-13.48-15.76,7.18-3.84,5-7.11,1.9-10.51l3.86-4.23,8.42,1.12c-5.64-20.45-4.34-40.69-11.33-59.76v11.44c-6.09-6-6.46-11.51-6-17.84l8.49,1.05c-0.92-11.67-1.81-22.48-2.62-33.29-0.44-5.88-.87-11.77-1-17.66s1.62-12.62-.48-17.72c-2.43-5.91,1.16-10.47.48-15.81-0.78-6.15.37-12.59,1.05-18.87,2.39-22.17,5.49-44.27,7.3-66.49a535.79,535.79,0,0,1,17.29-100q10.91-39.36,21.87-78.7c2.92-10.43,5.91-20.85,9.11-31.2,4.31-13.92,8.55-27.87,13.39-41.6,4.69-13.32,6.25-27.65,13.23-40.22,0.94-1.7,1-3.88,1.74-5.71,1.74-4.19,3.66-8.3,5.53-12.44,3.23-7.14,6.88-14.13,9.66-21.44,8.93-23.46,17.11-47.21,26.4-70.52,7.59-19,15.84-37.88,24.83-56.29,3.75-7.69,6.25-16,11.89-23,3.75-4.66,5.41-11.27,7.1-17.27,2.89-10.25,6-20.37,10.57-30,1-2.07,1.29-4.46,1.91-6.7l-2.44-.93L990.3,869.86l-4.71-14.28c4.78-.16,1.61-5.47,3.36-8.28l2.32,4.63c5.06-3,3.62-7.27,3.17-10.91l4.76-1.5,3.4-27.92,7.7-2.56-4.69-5.81h6.08c2.82-6.19,5.12-12,2.5-19.06-1.46-4,1.13-8.06,5.3-11.65l0.91,8.23c3.58-4.55,6.58-8.43,9.66-12.25,3.64-4.5,5-9.07,2-14.65-1.12-2.07-1.74-5.52-.78-7.42,6.57-13,13.62-25.69,20.59-38.45,0.15-.27,1.12-0.1,1.61-0.13l1.35,8.17c3.81-5.64,7.17-9.46,9.23-13.88,6.9-14.82,15.59-28.49,25.13-41.69a15.92,15.92,0,0,0,3-6.06c0.17-1-2-2.34-2.69-3.13,3.34-12.46,15.67-16.28,23-24.86a3.83,3.83,0,0,1,1.79-.82c6.27-1.87,10.8-5.25,13.09-10.31,5.15-11.37,10.26-22.75,15.19-34.22,2.68-6.24,5-12.66,7.41-19,6.79-1.52,8.31-4.09,5.56-9.38,4.26-.24,6.08-3.22,8-6.52,2.32-3.89,5.34-7.37,8.85-12.11l8.69,11.19c8.42-10.31,16.75-20.55,25.14-30.75q21.22-25.82,42.5-51.59c0.84-1,2.15-1.92,2.43-3.07,2-8,8.55-12.88,12.95-19.21,3.77-5.42,9-8.8,15.4-6.92l7.15-11.1-2.62-7.22c1.54-.79,3.06-1.09,3.8-2,9.62-12.12,22.39-21.43,30.74-34.72,1.81-2.88,5.14-4.77,7.59-7.3,8.08-8.33,15.58-17.31,26.79-21.86,1.75-.71,3.22-2.33,4.55-3.76,6.75-7.27,12.61-15.65,20.31-21.69,10.86-8.53,19.27-20.38,33-25.18,1.13-.4,1.86-1.84,2.86-2.71a272.11,272.11,0,0,1,63-41.28c14.37-6.71,28.84-13.26,43.46-19.41a255.13,255.13,0,0,1,24.3-8.35c3.1-1,6.54-.7,9.78-1.27,20.72-3.67,40.74-10.66,62.56-8.57,15.84,1.51,32-.7,47.91,2.46,12,2.39,24.23,3.9,34.31,12,6.71,5.39,13.74,10.39,20.71,15.45,9.11,6.62,18.29,13.14,26.08,18.72,0.35,2.73,0,4.73.86,5.95a132.7,132.7,0,0,0,9,11.61c3.18,3.67,6.09,8.21,10.18,10.29,5,2.54,3.45,7.92,7.16,11.17,5.28,4.6,9.55,10.71,10.07,18.58,0.18,2.78,1.83,5.64,3.37,8.12,18.74,30.17,33.38,62.28,44.87,95.8a335.88,335.88,0,0,1,11.44,42c2.81,13.82,6.59,27.48,8.45,41.5,1.22,9.2,1.73,18.49,2.7,27.72,2.38,22.65,5,45.28,7.22,67.94,2.08,21.16,3.61,42.37,5.71,63.52a1162.74,1162.74,0,0,1,4.16,171.5c-0.16,3.31-.33,6.61-0.42,9.92-0.44,17.33-.65,34.66-1.39,52-0.27,6.41-2.55,12.77-2.5,19.15,0.06,7.22,2.13,14.4,2.52,21.64a114.19,114.19,0,0,1-.8,19.6c-0.57,4.74.49,8.49,3.1,11.18l7.18-.42c-1,6.9-1.78,12.68-2.71,18.44a6.86,6.86,0,0,1-1.47,3.15c-4.82,5.75-4.61,11.72,1.79,14.86,5.47,2.68,7.77,6.9,9.18,12,0.73,2.64,2,2.91,4.34,3.81,7.3,2.79,14.78,3.42,22.37,3.48s12.14,3.94,14,11.2c1.93,7.65-.84,15.48,1.29,22.93,1.52,5.3-.63,12.66,8.63,16,0.5-6.77.63-12.55,1.44-18.24s-2.54-12.56,4.24-16.75l-6.25-7.1,8-2.25c1.54,3.11,2.17,7,4.25,8.08,6.23,3.17,6.62,8.44,6.67,13.26l10.12-2.17L1965,1051l7.27,0.67,1.09-1.77-6-7c1.79-.73,4.25-1.17,5.92-2.55,2.45-2,.32-8.69-1.68-7.78-5.16,2.35-4.94-3.82-8.11-4.25-0.33,1.49-.56,2.65-0.88,3.78a4.06,4.06,0,0,1-1.43.47l-20-6.67-1.49-8.84Zm15.89,74.82,6.08-16.42-1.34-1-3.92,2.84-4.4-13.83-2.07.43c0.24,3.09.32,6.2,0.75,9.26,0.88,6.34-6,2.26-7.61,6.08l0.78,9.75ZM1666.93,2511.18c-2.08,12.79,8.32,12.86,16.15,15.65,1.17-7-1.51-13-6.68-17.48l3.38-11.09-1.64-.59ZM1032.39,788.68C1020,804,1012,822.46,1013.14,832.31Zm273.89-626.4c-7.92-2.09-13,4-19.37,6.56C1294.74,171.11,1300.13,165.47,1306.28,162.28ZM1041,744.09l4.25-11.24C1038.89,737.49,1038.89,737.49,1041,744.09ZM1659.71,2506.4c-0.81,2.61-5.2,5.38-.38,8.44C1661.49,2510.88,1661.49,2510.88,1659.71,2506.4Zm11.79-19.63c-4.69-2.63-4.69-2.63-10.08,1.59ZM1945.74,1096.9l3,0.58c-1.26-3.94,3.6-7.27-.61-12.74Zm29.88-3.21v-9.54C1971.89,1087.73,1970.45,1090.28,1975.62,1093.69ZM1571.46,2421.05l-9.19,5.9C1567.92,2428.82,1569,2425.91,1571.46,2421.05ZM1044.65,759.33l2,0.82,3.68-8.83-2-.84Zm297.93-612.12-0.5-1.53-6,1.81,0.57,1.8Zm624.94,912,6.84,4.29C1974.38,1057.71,1971.33,1058.76,1967.52,1059.23Zm-855.37-421-2.19-1.51-3.92,7.32,1.8,1Zm-72.57,133.82-2.38-.54-0.52,4.9,1.73,0.29Zm623.3,1768.37,1.58,0.65,2-4.94-1.63-.68Zm-167.94-618.92,0.8,1.15,6.07-3.62-1.1-1.66Zm486.35-880a8.67,8.67,0,0,0,1.13,1.57,0.84,0.84,0,0,0,.78,0c1.27-1.33,2.55-2.66,3.7-4.09,0.2-.25-0.17-1-0.42-2.13Zm107.57,24.67,1.78-1.13-4.25-5.71-1.31,1Zm-126.1,44.54-2-.83-1.35,5.49,1.76,0.48ZM1696.44,2459.56l0.24-1.56-4.38-.56-0.2,1.41Zm-44.53,82.85-0.69-.43-2.33,3.52Zm272.32-1468.33,1.54-.69-1.94-4.23-1.54.69Z" style="fill:#fff"/><path d="M1808.84,188a2,2,0,0,0,.56.81c9.39,3.17,17,9.73,25.46,14.05,7.83,4,16.14,7.42,23.58,12.2,10,6.44,19.81,13.36,29.25,20.65,15.25,11.78,30.23,23.92,45.12,36.16,3.22,2.65,5.54,6.39,8.36,9.55,2,2.21,4.13,4.26,6.13,6.45,3.33,3.63,6.51,7.4,9.92,11s6.91,6.93,10.45,10.31c11.22,10.73,19.4,23.62,26.67,37.18,4.18,7.79,8.68,15.41,12.58,23.33,2.7,5.48,4.37,11.47,7,17,3.89,8.36,7.76,16.78,12.4,24.73,7.67,13.13,14.43,26.63,19,41.14,1,3.1.83,6.54,1.27,9.82,0.26,1.92,0,4.45,1.13,5.62,3.91,4.09,3.41,9.83,5.69,14.1,5.3,10,4.1,21.08,7.48,31.21,3,8.9,1.52,18,2.14,27,0.19,2.81.86,6.18,2.59,8.17,4.52,5.21,4.06,11.6,5.82,17.5,1.41,4.74-5.22,3.06-3.41,5.74,3.9,5.75,1,13.36,5.81,18.85,1.36,1.56,1.64,4.2,2,6.41,1.82,10,1.92,20.29,6.64,29.73,1.36,2.71.67,6.43,1,9.68,1.48,15.4,2.76,30.82,4.56,46.19,1.27,10.88,3.69,21.63,4.85,32.52,2.67,25.14,5,50.33,7.25,75.51,1.66,18.53,3,37.09,4.47,55.64,0.85,10.95,1.62,21.9,2.4,32.85a6.28,6.28,0,0,1-.1,3c-4.63,9.49-2.09,19.39-1.85,29.17,0.09,3.63-.44,7.28-0.46,10.92-0.1,19.36,0,38.72-.24,58.08-0.1,7.85-2.65,16.1-.93,23.42,1.63,6.94-.92,13-0.32,19.57,0.9,9.79.23,19.73,0.23,29.85-2-3.87-7.21-5.09-6-11.2,0.94-4.94-1-10.4-1.4-15.64-0.49-6.81-.7-13.65-1.14-22.78-4.56,6-4.11,10.6-3.78,15.15,0.14,2,1.17,4,.82,5.79-0.82,4.17-2.23,8.22-3.41,12.32,5.27,2.91,1.4,6.75.4,9.61-1.31,3.78,2.09,2.53,2.77,3.78s0.3,3.17.43,5.79l-6.76-2.3c0.89-15.66-4.84-31.28,3.42-46.49-8.1-4.39-4.46-11.66-3.78-17.52,0.8-6.9-1.41-12.49-3.81-20.28a70.28,70.28,0,0,0-7.36,29.77,253.19,253.19,0,0,1-2.46,29.33c-0.61,3.93-3.84,7.45-6,11.43-4.25-2.06-2.89-5.13-2.84-8.43,0.05-3.57,1.41-9.27-5.66-9l-3.71,18.79-6.49,2.07c-3.73,8.23,5.16,10.05,8.82,16.18-9.51-1.89-18.35,1-26.9-4.1,2.79,7.92-4.59,17.41,4.25,24.53l-22.06,10c-7.41-8.32-5.12-18.22-6.2-27.16l6.49-1.6-6.91-6h4.81c0-.57.2-1.45-0.13-1.76-1.86-1.81-3.65-4.64-5.82-5-7.68-1.33-9.37-6.22-9.3-12.87,0-1.47-.46-3.81-1.43-4.28-7.3-3.56-8.68-11.82-13.87-17-1.76-1.77-2.3-4.7-3.6-7-1.06-1.86-2.41-3.54-4.58-6.66-1.93,5.94-3.21,10.38-4.83,14.68-1.86,5-5.92,2.88-9.38,2.59l0.36,0.26-5.27-4-3.15,6.08,0.1-.29-8.13-2.84,1.49,8.84,20,6.67a4.06,4.06,0,0,0,1.43-.47c0.33-1.13.55-2.29,0.88-3.78,3.17,0.43,3,6.6,8.11,4.25,2-.91,4.14,5.75,1.68,7.78-1.67,1.38-4.13,1.82-5.92,2.55l6,7-1.09,1.77L1965,1051l-0.39,4.34-10.12,2.17c-0.05-4.82-.44-10.09-6.67-13.26-2.08-1.06-2.71-5-4.25-8.08l-8,2.25,6.25,7.1c-6.78,4.19-3.41,10.95-4.24,16.75s-0.94,11.47-1.44,18.24c-9.26-3.36-7.11-10.71-8.63-16-2.13-7.45.64-15.29-1.29-22.93-1.83-7.26-6.44-11.14-14-11.2s-15.07-.69-22.37-3.48c-2.36-.9-3.61-1.17-4.34-3.81-1.41-5.09-3.71-9.31-9.18-12-6.4-3.14-6.61-9.11-1.79-14.86a6.86,6.86,0,0,0,1.47-3.15c0.93-5.75,1.71-11.53,2.71-18.44l-7.18.42c-2.62-2.69-3.67-6.44-3.1-11.18a114.19,114.19,0,0,0,.8-19.6c-0.39-7.24-2.46-14.42-2.52-21.64,0-6.37,2.22-12.74,2.5-19.15,0.74-17.31.95-34.65,1.39-52,0.08-3.31.26-6.62,0.42-9.92a1162.74,1162.74,0,0,0-4.16-171.5c-2.1-21.15-3.63-42.36-5.71-63.52-2.23-22.67-4.84-45.29-7.22-67.94-1-9.23-1.48-18.52-2.7-27.72-1.86-14-5.64-27.69-8.45-41.5a335.88,335.88,0,0,0-11.44-42c-11.49-33.52-26.13-65.63-44.87-95.8-1.54-2.48-3.19-5.34-3.37-8.12-0.52-7.87-4.79-14-10.07-18.58-3.72-3.24-2.16-8.63-7.16-11.17-4.09-2.07-7-6.62-10.18-10.29a132.7,132.7,0,0,1-9-11.61c-0.83-1.21-.51-3.22-0.86-5.95-7.78-5.58-17-12.1-26.08-18.72-7-5.07-14-10.07-20.71-15.45-10.07-8.08-22.32-9.59-34.31-12-15.87-3.16-32.07-.94-47.91-2.46-21.82-2.09-41.84,4.9-62.56,8.57-3.24.57-6.68,0.32-9.78,1.27a255.13,255.13,0,0,0-24.3,8.35c-14.62,6.16-29.08,12.7-43.46,19.41a272.11,272.11,0,0,0-63,41.28c-1,.86-1.73,2.31-2.86,2.71-13.72,4.8-22.13,16.66-33,25.18-7.7,6-13.56,14.42-20.31,21.69-1.34,1.44-2.81,3.06-4.55,3.76-11.21,4.55-18.71,13.53-26.79,21.86-2.45,2.52-5.78,4.41-7.59,7.3-8.36,13.29-21.12,22.6-30.74,34.72-0.73.93-2.25,1.23-3.8,2l2.62,7.22-7.15,11.1c-6.39-1.88-11.63,1.5-15.4,6.92-4.4,6.33-11,11.2-12.95,19.21-0.28,1.15-1.59,2.05-2.43,3.07q-21.25,25.79-42.5,51.59c-8.38,10.2-16.71,20.44-25.14,30.75L1172.48,534c-3.52,4.74-6.53,8.22-8.85,12.11-2,3.3-3.79,6.28-8,6.52l-5.57,9.39c-2.46,6.34-4.73,12.75-7.41,19-4.93,11.46-10,22.85-15.19,34.22-2.29,5.06-6.82,8.44-13.09,10.31a3.83,3.83,0,0,0-1.79.82c-7.33,8.59-19.67,12.4-23,24.86,0.73,0.79,2.86,2.17,2.69,3.13a15.92,15.92,0,0,1-3,6.06c-9.54,13.2-18.24,26.87-25.13,41.69-2.06,4.43-5.42,8.24-9.23,13.88l-1.35-8.17c-0.49,0-1.46-.15-1.61.13-7,12.76-14,25.49-20.59,38.45-1,1.9-.34,5.35.78,7.42,3,5.57,1.68,10.14-2,14.65-3.08,3.82-6.08,7.7-9.66,12.25l-0.91-8.23c-4.17,3.59-6.77,7.69-5.3,11.65,2.62,7.1.32,12.87-2.5,19.06h-6.08l4.69,5.81-7.7,2.56-3.4,27.92-4.76,1.5c0.45,3.64,1.89,8-3.17,10.91L989,847.3c-1.76,2.81,1.42,8.12-3.36,8.28l4.71,14.28L1008.45,833l2.44,0.93c-0.62,2.24-.93,4.63-1.91,6.7-4.59,9.64-7.68,19.76-10.57,30-1.69,6-3.35,12.6-7.1,17.27-5.64,7-8.14,15.35-11.89,23-9,18.42-17.24,37.25-24.83,56.29-9.29,23.31-17.48,47.06-26.4,70.52-2.78,7.31-6.43,14.3-9.66,21.44-1.87,4.13-3.79,8.25-5.53,12.44-0.76,1.83-.8,4-1.74,5.71-7,12.57-8.53,26.91-13.23,40.22-4.84,13.73-9.08,27.68-13.39,41.6-3.2,10.35-6.19,20.77-9.11,31.2q-11,39.33-21.87,78.7a535.79,535.79,0,0,0-17.29,100c-1.81,22.21-4.91,44.32-7.3,66.49-0.68,6.28-1.83,12.72-1.05,18.87,0.68,5.34-2.91,9.91-.48,15.81,2.1,5.1.3,11.76,0.48,17.72s0.61,11.78,1,17.66c0.8,10.81,1.7,21.62,2.62,33.29l-8.49-1.05c-0.45,6.33-.08,11.79,6,17.84v-11.44c7,19.07,5.69,39.31,11.33,59.76l-8.42-1.12-3.86,4.23c3.07,3.4,5.28,6.68-1.9,10.51,10.85,0.78,5.58,12,13.48,15.76-1.14-5.41-2.48-9.66-2.8-14-0.29-3.88-4.9-8.43,2.27-13.14,7,34.37,15.23,67.35,28.36,99.72-7.11-1.21-3.64-7.72-6.91-10.66s-5.12-7.54-7.59-11.41c-2.11,17.94-1.21,23,4.27,25.66L856,1720.11l1.49,0.19,2.91-3.83c5.79,6.39,6.52,18.41,19.43,16.53l-0.38,8.26c7.61,3.41,10.63,10.17,12.66,17.78,0.8,3,3.42,5.74,3.63,8.7,0.25,3.63-2.63,8-1.44,10.91s7.34,4.11,8.49,7.12c4.14,10.8,15.05,15.67,20.54,25.12,1.48,2.54,3.71,4.64,5.46,7,8.21,11.27,17.1,21.71,30.6,27.08,1.86,0.74,3.15,2.94,4.7,4.44,2.81,2,5.21,5.25,9.43,3.35l13.36,3.36-4.13,6.66c10.59-2,19.2,5.38,28.45.25a1.29,1.29,0,0,1,.93.22c17.93,9.72,37.87,6.4,56.94,8.39,6.76,0.71,12.17,4.24,18.47,5.49,1.15,0.23,2.7,1.68,3.22,1.33,7.83-5.39,18.35.16,26.19-7,3-2.71,9.24-1.67,14-2.6,24.93-5,49.74-10.4,73.1-20.88,6.28-2.81,12.44-5.92,18.86-8.36,17.1-6.49,33.67-14,49.19-23.74,7-4.37,13.74-9.13,20.63-13.67,2.21-1.46,4.47-3.87,6.78-4,10-.36,17-7.23,25-11.5,7-3.72,14.75-7.61,19.69-13.5,5.89-7,13.61-10.43,20.68-15.19,4.71-3.17,9.9-5.61,14.79-8.52,1.31-.78,3.47-2.41,3.27-3.05-2-6.6,4.87-10.07,5.23-17,4,4.17,7.82,4.33,12.25,1.77a72.55,72.55,0,0,0,23-20.27,9.74,9.74,0,0,1,2.81-2.79c18.94-10.9,31.56-29.49,51-40.32,13.64-7.58,24.33-20.51,36.27-31.13,10.84-9.64,21.53-19.46,32.43-29,4.34-3.82,6-10.69,13.08-11.4,1.41-11.7,13.37-15,18.91-23.66s13.19-15.75,20-23.51,13.61-15.39,20.35-23.14c9.58-11,19.06-22.13,28.66-33.14q31.32-35.9,62.75-71.72c7-7.95,14.33-15.59,21.35-23.52,1.49-1.68,2.28-4,3.4-6,3.13-5.58,7.77-9.26,14.52-11.36,3.52-15.1,14.6-25.77,23.38-37.91,6-8.3,11.54-16.95,17.06-25.58,1.1-1.72,1.21-4.09,2-7,0.25,0,1.65.7,2.42,0.26,7.45-4.27,16.15-4.49,23.88-7.5,6.55-2.56,6.72-5.37,2.47-10.66,4.22-5.52,7.88-1.19,12,0-7.8,13.43-18.34,24.91-18,42.3,2.55-.7,4.81-0.62,5.71-1.69a90.47,90.47,0,0,0,8.68-12.1c1.23-2.1,5.13-3.81,2.05-7.5-0.5-.6,1-2.9,1.65-4.41,1.89-4.65,3.78-9.29,6.61-16.23,4.63-3,15.63-.91,18.64-13.1l4.64,7.73,1.31-6.72c0.94,0.09,2.15-.14,2.8.35,1.28,1,2.77,2.19,3.24,3.62,1.45,4.41,2.16,9.21,7.9,10.24,4,0.72,7.88,2.9,12.27.6,1.5-.79,3.89.13,6.65,0.31,0.32-1.47.62-3,1-4.43s0.83-3.11,1.4-5.23c1.67,0.66,2.9,1.64,3.94,1.47,12-2,20.81,5.29,30.1,10.55a70.26,70.26,0,0,0,21.91,8.2c6.84,1.29,13.48,2.8,16.89-7.3l5.76,9.91v-10.54a12.48,12.48,0,0,1,3.16-.56c3.58,0.44,4.56,3,5.44,6.16,2.74,9.79,5.75,11.44,16.48,9.46,3,4.26,5.27,9.76,12.25,9.7,1.62,0,4.15,2.4,4.73,4.19,1.53,4.7,4,7.32,9.38,6-1,4.39-2.05,7.88-2.33,11.43-0.13,1.61,1.55,4.85,2.13,4.78,5.2-.57,4.22,3.89,4.29,5.93,0.34,9.89.51,19.84-.13,29.71-1.17,18.16-2.81,36.29-4.54,54.41-0.9,9.47-2.45,18.88-3.62,28.33-2.61,20.93-4.69,41.93-7.86,62.78-4.13,27.21-9.11,54.29-13.66,81.44a13,13,0,0,0,.68,6c3.07-3.57,10.61-.64,10.51-7.06-0.08-5.53,5.51-7.32,5.53-12.74,6,2.42,5.24,6.39,4.15,10.69-6,23.55-11.91,47.13-17.88,70.7q-18.88,74.57-37.79,149.13c-1.79,7.05-3.54,14.11-5.46,21.13-0.51,1.86-1.15,4.49-2.53,5.18-7.14,3.57-6,10.15-6.22,16.09-0.21,6.69.13,13-5.65,18.32-2.12,1.95-2.85,6.91-2.2,10.09,1.39,6.81,1,12.84-3.78,18-2.12,2.28-2.11,4.26-1.4,7.17,0.89,3.64,1.66,7.47-2.94,10.42-1.72,1.1-1.21,5.67-1.91,9.81-8.81,2.84-10.43,10.49-10.08,20.07,0.3,8-.06,16.4-2.46,23.88-2.93,9.18-.58,20-8.38,27.79-1,1,.1,4.26.26,7l-5.52-1.47c-0.59,5.1-6.14,9.79.32,15.21,1,0.86-.35,4.58-0.8,8.63l-3.07-4.67c-4.45,1.74-1.47,4.7-.63,7.64l-6.68,1.33c5.39,9.18,3.31,20.47-4.57,27.58a9.46,9.46,0,0,0-2.47,3.93,132.86,132.86,0,0,0-4.1,14.19c-0.31,1.48,1.09,3.32,2.1,6a6.36,6.36,0,0,0-2.3,2.65c-3.34,9.57-6.42,19.23-9.58,28.86-1.07,3.27-2.35,6.48-3.22,9.79-5,19-9.88,38.11-14.84,57.15-3.65,14-7.65,27.94-11,42-4.88,20.77-9.27,41.65-13.95,62.47-0.4,1.79-1.42,3.44-4.1,4.93l0.52-11.66-0.9-.29c-2.66,7.41-6.49,14.63-7.74,22.27-2.35,14.3-7.29,27.77-11.14,41.59-3.8,13.66-9,27.22-10.45,41.14-1.32,13-7.85,23.45-11.52,35.2-1.36,4.34-2,8.9-3.28,13.28-0.85,3-2.15,5.81-3.43,9.17l-8-3.73c-1.26,6.78-2.42,12.85-3.48,18.93a6.08,6.08,0,0,0,.21,2.8c3.15,9.8,1.25,12.8-8.54,13.47-1.32.09-2.63,0.27-3.74,0.39l-7.1,8.46c-7.91-3.88-15.77-7.61-23.51-11.57-8.82-4.51-16.19.78-18.38,11.8-1.36,6.88-4.82,13.39-7.76,19.87-0.62,1.37-3.1,1.9-5.16,3.06-3-7.63-.54-14,1.55-20.54,1.48-4.66,1.58-9.76,2.54-16.34l4.44-2.8-5.43-5.88c-4.44,5.52-14.06,3.9-15.27,12.47-3-2.07-8.44-4.49-8.19-5.83,1.08-5.63-3.66-5.46-7.39-8.09l7.52-5.33c0.07,0.56.19-.15-0.11-0.56-1.34-1.87-3.32-3.45-4.09-5.51-1.31-3.48,1.24-5.28,5.25-4.46,1.93,0.39,4.36-.78,6,0,1.35,0.64-1.26,4.24,2.62,4.87,5.8,0.94,11.48,2.6,17.72,4.08l4.17-6.57c-3.34-2.9-11.61-.32-8.22-8.55-3.14-.52-5.45-0.78-7.7-1.3-3.71-.87-5.51-3.22-5.6-7.15-0.1-4.49-.56-9-0.92-14.17-1.83.35-3.73,0.13-4.66,1-6.46,5.91-12.51,12.15-21.79,13.89-1.72.32-3,3.77-4.18,6-2,3.87-4.29,6.43-9.31,5.27-3.72-.86-9-2.35-6.06,5.13l-5.49,1.94,5.63,3.88c-1.48,4.68-2.36,9.58-4.56,13.78-2,3.9-5.5,7-8,10.07l-11.34-14.62-1.64,6.53-2.88-14.33c6.41-1.62,5.06-8.52,5.83-13.72s-4.15-8-7.9-10.4c-4-2.58-8.65-4.2-13.74-6.57,4.15-4.08,13.54-1.26,11.26-10.64-1.89-.8-4.82-1.22-6.13-2.9-0.84-1.08.81-4,1.13-6.13,0.73-4.87,1.32-9.77,1.95-14.45-4.54-3.53-6.31-1.2-7.53,2.43-1,2.81-1.85,5.63-3.22,9.83-5-10.2-4-18.62-2.24-27.47,3-14.9,6.43-29.82,5.55-45.22,0-.76-1.17-1.45-2.1-2.52-6.33,6-8.75,13.71-8.66,21.44,0.06,5.54-2,7.72-6.73,9.07,1.49,15.77-3.19,30-8.88,44.58l-6.55-1.86a14,14,0,0,1,.55-2.9,40.57,40.57,0,0,1,2.27-4.39c3.1-5.37,5.69-10.51,5.48-17.36-0.18-5.92,2.77-11.93,4.19-17.93a18.57,18.57,0,0,0,0-4.19l-2.19-.49L1561,2408.65l-6.35-1.51c1.84-6.89,3.36-15.06,6.27-22.71,2.16-5.67,1.78-12.15,4-17,3.69-7.91,3.86-16.19,6-24.17,3.78-14,5.61-28.7,10.37-42.35,4.9-14.05,7-28.82,12.33-42.66,0.48-1.24,1.38-2.54,1.29-3.75-1.09-14.24,6.27-26.65,8.68-40.17,3.16-17.76,8.5-35.13,12.68-52.72q8.59-36.16,16.83-72.4,6.12-27,11.77-54c3.8-18.2,8.76-36.32,10.57-54.73,1.77-18,6.15-35.39,9.26-53.05,1.93-11,5.69-21.71,8.6-32.56,0.77-2.87,1.64-5.74,2.13-8.67,3.65-21.88,7-43.82,10.94-65.64,1.41-7.78,4.83-15.22,2.73-24.41-6.11,4.15-13,5.22-18.4,11.51-6.27,7.27-15.42,12.11-23.48,17.76-7.23,5.08-14.19,11-22.2,14.37-7.07,2.94-10.61,9.33-16.82,12.86-6.55,3.72-12.22,9-18.76,12.75-7.83,4.49-14.49,11.36-24.09,12.52a2.88,2.88,0,0,0-2,1.65c-1.6,7.1-8,10.19-13.14,12.66-6.36,3-13.19,5.46-19.8,8.19-1,.4-2.72-1.1-3.77-1.57-1.46,3-2.26,6.71-4.52,8.83-2.52,2.37-6.4,4.73-9.62,4.64-10.58-.29-18.48,4.55-26,11.06-2.34,2-5,4.42-8.62,2.25-4.44,4.53-11.06,2.91-16.08,5.63-8.62,4.66-16.61,11-25.72,14.05-6.2,2.09-11.35,6.59-19,6.55-7.07,0-14.09,5-21.28,7.38-9.43,3.1-19.5,4.7-28.41,8.86-11.33,5.3-23.36,5.27-35.1,7.52-2.29.44-5.57-.57-6.33,3.32-0.08.4-2.75,1-3.49,0.45-3.71-2.62-6.91-1.43-10.15.73a1.64,1.64,0,0,1-.91.37c-6.08-.61-12,3.07-17.19,2.71-6.6-.46-11.13,3.54-17,3.91-10.08.63-20.13,1.82-30.18,2.83-8.86.89-17.7,2-26.57,2.77-6.91.62-13.85,0.85-20.77,1.37-9.2.69-18.39,1.9-27.6,2.11-6.2.14-12.42-1-18.63-1.65-1-.1-2-0.65-2.94-0.46-15.54,3.34-26.2-8.67-39.4-12.64-1.85-.56-3.18-3.11-4.56-4.88-2-2.62-3.67-6.19-7.08-1.08-0.34.51-3.65-.45-5.23-1.35-32.25-18.38-63.85-37.93-97.91-53-7.72-3.42-14.19-9.56-21.45-14.13-11.19-7-22.61-13.72-33.81-20.73-2.55-1.6-4.64-3.93-7.28-6.2-3.28-.76-8.07-0.6-11.19-2.81-13.28-9.41-28.39-15.49-42.23-23.89-6.13-3.72-13-6.5-19.22-10.39-25.43-15.85-51.12-31.29-76.63-47a51.42,51.42,0,0,1-8.46-6.86c-4-3.82-7.81-7.81-11.46-11.94-2.59-2.93-4.64-6.34-7.18-9.33-2.92-3.43-6.37-6.42-9.16-9.94-10.53-13.34-20.89-26.83-31.53-40.53,1-2.11,1.94-4.15,2.9-6.17l4.91,3.76,1.64-1.49-3.21-4.67-3.17,2.68c-9.92-.59-13.55-4.78-14.74-17.77l5.79,2.7c4.53-7.59-4.82-7-5.87-11.33l5.78-2.05c-5.36-8.25-11.4-15.62-7.38-26.24-1.66-.89-3.36-2.58-5.08-2.59-8.37-.07-13.31-3-11.24-12.86-5.09-1.73-9.72-3.31-14.32-4.89,4.27-1.41,9-2.32,8.25-8.94-5-3.49-8.93-8-9.53-15.63l4.65-1.89-10.7-8,2.08-2.19-6,10,11.9,21.38-0.37,5.27,0.85,5.39,0.24-.26c-8-2.7-9.48-8.94-8.71-16.72-5.23.07-7-3.56-8.67-7.84-6.31-16.48-13.67-32.61-19-49.4-3.64-11.43-4.55-23.73-6.68-35.65l4.18,6.42c2.07-5.17-1.65-5.32-4.15-6.42-7-2.71-3.75-9.58-5.4-14.35-1.87-5.41-1.38-11.62-2.1-17.46-0.19-1.58-.62-3.58-1.69-4.52-5.58-4.87-5.14-11.26-4.73-17.58,0.62-9.6,1.56-19.19,2.26-28.79,0.4-5.5.66-10.24-3.54-15.56-6.55-8.3-6.5-19-5.57-29.5,1.54-17.53,2.21-35.13,3.65-52.67,1-12.21,2.67-24.37,4.08-36.55,1.56-13.45,2.65-27,4.86-40.33,4-24.14,8-48.32,13.26-72.22,6.76-30.86,14.46-61.51,22.34-92.11,2-7.8,3.67-15.92,8.66-22.91,1.58-2.22.25-6.52,0.25-10.07,1-1.09,3.38-2.56,4.06-4.61,3.52-10.53,5.27-21.89,10.25-31.62,4.24-8.29,1.93-19.05,11.38-25.19l-4.17-2.87a13.41,13.41,0,0,0,2.89-2.57,11.89,11.89,0,0,0,1-3.7c1.83-8.2,9.37-14.46,8-23.84-0.16-1.08,2-2.41,2.88-3.73,1.1-1.57,2.61-3.13,3-4.9,3.74-17.43,13.9-32.46,18.37-49.67,1.84-7.07,6-13.53,8.88-20.35,0.84-2,1.82-4.53,1.24-6.33-1.67-5.11.15-7.36,4.53-10.13a23.32,23.32,0,0,0,9-11c3.95-11,10.29-20.82,14.23-31.67,2.06-5.67,4.22-11.39,5.85-17.16,1.1-3.9,2-7,4.86-10.28s3.75-8.41,5.36-12.77c5.13-13.87,13.08-26.58,16.45-41.22,1.56-6.77,6.3-12.18,9.94-18,2.61-4.2,5-8.56,7.58-13.12l-3.6-1a3.1,3.1,0,0,1-.06-1.62c2.45-3.47,4.51-7.43,7.64-10.16,4.16-3.64,8.51-6.54,5.85-13.12-0.36-.89.61-3.33,1.29-3.48,5.82-1.22,6.12-6.69,7.5-10.56,1.45-4.06,3.09-7.36,6.35-10.18a5.91,5.91,0,0,0,1.44-5.1c-2.06-6.53.11-11.33,4.9-15.68,1.54-1.4,2.24-3.71,4-6.73l3.84,7.1A47.22,47.22,0,0,0,863.23,639c1.65-8.29,8.57-15.62,13.56-23.12,4-6.06,6.84-12.29,6-20.16l10.16-3.41-7.63-3.45a7.86,7.86,0,0,1,.71-1c6.79,3.37,6.53-3.9,9.23-6.35,4.34-3.93,4.08-4.22,3-10.53,3.91-3.41,7.88-6.24,10.87-9.87,0.92-1.12-.85-4.45-1.56-7.46l5.53-1.5c3.69-6.36,7.59-12,10.36-18.1,4.76-10.54,10.64-20.52,13.77-31.9,2.57-9.38,7.12-18.26,16.53-23.29,1.52-.81,3.54-2.52,3.62-3.9,0.42-8.11,7.07-10.36,12.48-14.21-0.61-2.93-5.81-6.66,1.18-9.06,1.45-.5,2.49-2.63,3.38-4.2,5.08-9,10.07-18.07,15.48-27.83l-7.66-2.84c1.64-1,2.67-2.06,3.13-1.85,6.72,3,10.29-3.57,10-6.36-0.61-6.34,4.49-3.36,6.48-5.77l-5-3.37,6.45-16.42,2,0.24,3.41,14.43c7-2.32,9.17-7.28,12.34-11.83,11-15.81,22.46-31.31,34.21-46.57,8.84-11.49,17.46-23.39,27.82-33.41,16.38-15.82,34.56-29.75,51.13-45.38,7.69-7.25,15.22-14.44,24-20.34,11.49-7.72,22.76-15.79,34.22-23.55,3.79-2.57,7.89-4.66,11.84-7l-5.4,9.58c5,1.48,7.75-2.28,12-5.14l-6.9-4.2c3.13-2.26,6-5,9.43-6.69,13.26-6.78,26.66-13.27,40-19.81a102.18,102.18,0,0,1,11.8-5.25c2.25-.77,5.34-1.3,7.29-0.36,9.1,4.38,16.28-.34,23.81-4.14,16.41-8.28,32.33-17.88,51.27-19.54,1-.09,2.6,0,2.8-0.48,3.86-9,13.39-4.91,19.71-8.55,6.09-3.52,13.4-6.79,20.19-6.81,11.07,0,21.3-5.9,32.58-3.43,8.28,1.81,15.7-2.92,24.87-3.85l-7.33-6.6c13.27-.31,24.64-0.35,36-0.92,5.83-.29,11.6-1.58,17.41-2.29,4.82-.59,9.68-1.54,14.49-1.37,15.46,0.54,30.91,1.53,46.37,2.33a15.08,15.08,0,0,1,3,0,191.16,191.16,0,0,0,31.32,5.55c9.64,0.94,18.94,5.13,28.46,7.66a40.1,40.1,0,0,0,8.59.9c5.21,0.21,10.62-1.1,15,3.39,1.13,1.15,3.79,1.58,5.52,1.23,4.95-1,8.91,1,13.34,2.6s9.59,1.52,14.43,2.08c4.09,0.48,7.2,1.37,9.2,6,2.1,4.89,6.15,4.33,10.25-.54,8.94,1.25,16.56,5.09,24.11,10.11a31.22,31.22,0,0,0,17.2,4.61c12.6-.35,23.73,5.21,35.7,7.15,1.22,0.2,2.24,1.4,3.47,1.81,5.24,1.76,10.42,3.88,15.8,4.95,6.2,1.23,12.46,1.78,16.32,7.71l-4.89-.89-0.64,2,7.32,2.6ZM872.46,1837.12l8.52,4.4c-1.07-6.63-5-5.3-8.71-4.3-1.59-5.29-1.83-5.43-9.55-5.56C866,1833.56,869.19,1835.37,872.46,1837.12Zm719.37-269.3L1584,1575l1.15,1.22,7.78-4.19c-0.43-1.49-.88-3-1.3-4.48,5.88,1.27,4.16-3.75,4.48-6.93Zm422.93-94.54-1.12,12.77,2.31,0c-1.72-4.16,4-8.54-1.42-12.59,1.46-3.06,3.34-6,4.26-9.23,0.69-2.41.14-5.18,0.14-7.44-4-1.23-7.12.33-5.63,3.91,1.6,3.86,1.51,6.6-.66,9.82C2012.46,1470.83,2014,1472.31,2014.77,1473.28ZM657.63,1574.36c-2.9,1.32-7-1.75-8.58,3.68l8.59-3.72c-0.33,5.88-6.12,5.91-10.37,8.78l7.25,12.94,4.25-6-5.69-3.19,4.85-3.75c6.6,8.24,7,8.43,13.24,6.25,0.26-3.38-5.92,1.44-4.86-3.92,0.28-1.42-3.25-3.48-4.82-5.41C660.05,1578.25,658.91,1576.25,657.63,1574.36Zm80.53-635.72c-3-1.2-5.76-1.41-7.55,2.12-1.93,3.8-5.08,7.35-5.75,11.34-0.94,5.63-5.56,9.54-5,16.36,0.44,5.11-5.13,10.76-8.08,16.14-2.13,3.88-4.15,7.67,2.4,11,2.31-4.46,4.4-8.63,6.61-12.74,5.94-11.06,4.7-24.9,13.51-34.89,0.65-.74-0.26-2.7.24-3.78a43.64,43.64,0,0,1,3.5-5.45L737.26,928l-6.67,6ZM927.62,563.16l11.45-4.4c-6.18-3.84-12.29-5.11-19.08-1.74-2.29,10.19-12.7,17.79-10.16,29.92-7.73,2.65-7.33,2.84-11.82,12.12-4.23,8.73-9.48,17-14.14,25.5a34.91,34.91,0,0,0-2,5.91l1.73,1c2.53-2.93,5.26-5.71,7.53-8.83,4.28-5.88,7.8-12.4,12.66-17.73,1.9-2.09,4.15-3.21,5.09-6.45,0.73-2.52,4.16-4.13,5.64-6.6,1.85-3.09,2.2-8.74,4.49-9.52,4-1.38,4.64-3.4,6-6.73,1-2.52,4.8-3.93,7.66-6.07Zm38.23-76c4.4-6.83,7.46-13,11.87-18,3.83-4.31,7.79-8.29,10-13.71,1.89-4.61,4.42-8.62,9.09-11.15,1.35-.73,1.75-3.21,2.59-4.89-5.58-1.41,1.47-5.25-1.53-7.95a35,35,0,0,0-4.45,3.75c-3.37,4-6.43,8.25-9.84,12.21-4.46,5.17-9,10.07-9.85,17.46-0.3,2.61-2.68,5.24-4.67,7.34C965,476.56,963.66,481.15,965.85,487.17ZM2064.26,984.65L2062.6,987l-5.51.47c7.74,7,7.33,13-.88,19.26l7.46,11.36c1-8.31,2-15.38,2.61-22.5,0.56-6.89.69-13.83,0.88-20.74,0.49-17.16.67-17.21-1.81-19.24l-5,26.91ZM1609,2390.45c-6.44-10.2-5.48-15.53,3.33-19.21l-5.7-3.3,4.69-3.08c0.35-5.36.62-10.1,1-14.83s0.82-9.17,1.23-13.75c-5.41,7.4-12.12,39.13-14,60.54ZM1049.32,375.76v-4.94l5.84-1V359.71c-1.7.18-3.51-.15-4,0.52-7.27,9.2-14.46,18.46-21.35,27.94-0.74,1,.5,3.49,1,6.35ZM945.24,530.33c-4,1.68-6.8,3.36-9.81,4-4.1.87-5.33,3.72-5.9,7.07-0.65,3.84.5,6.95,5.06,8.63l3.57-11.64,16.16-2.63Zm-242,481c-6.65,10.79-6.52,11.34,4,15.28-4.75-7.15,5.25-7.51,4.47-13.35Zm411.86,948.79-20.78-4.88c-0.26,2.79.21,4.23,1.05,4.5,7,2.2,14.9,1.66,20.68,7.44,0.5,0.5,2.54-.56,3.87-0.9C1114.65,1967.18,1114.88,1963.88,1115.09,1960.15ZM833.69,1638.88l11.53,17.86C845.25,1644.73,842.48,1639.68,833.69,1638.88Zm17.77,41.68c-0.64-12.39-2.47-16.19-8.87-20.08l3.58,17.15ZM941.63,526.31c5.66,0.65,9.79,6.89,16.37,2.57-2.12-6.43-7.59-7.05-11.8-9.69Zm1069,963.53c-2.35,17.38-2.35,17.38.95,21.1,0.86-3,1-6.44,2.7-8.84C2018.11,1496.7,2015.18,1493.84,2010.68,1489.84Zm10.88-123.45c6.91,3.22,7.78-1.3,9.25-4.9s1.12-6.43-3.95-7.09Zm-212.74-19.64c-7.27-2.9-8.37-1.8-9.6,11.06Zm-991,171.83,10.15-3.83c-5.48-2.16-1.29-9.08-8.8-9.4Zm83.44,299.83-2.08,1.24c2.95,6.36,5.64,12.91,13.72,15.22Zm28.64,30.41,2-1.72-14.95-16.72-1.64,1.45C918.06,1839.22,925.07,1843.09,929.87,1848.81Zm752.63,29.87,1.87,1c4.64-6.84,3.38-14.65,1.76-22.54ZM1226.88,204.88L1246,194.47C1235.66,193.5,1231.1,198.82,1226.88,204.88Zm185.77,1736.65c-6.79-2.78-10.76-1.83-15,3.44C1403.51,1947.5,1407.51,1943,1412.65,1941.53Zm-92.46,20.74-11.87,5.1,15.54,2.64Zm470.35-633.12c-4.26,3.73-4.63,7.74-4.13,12.11C1788.42,1337.91,1793.16,1335.65,1790.54,1329.15ZM679.22,1613.21l2.63,11.17,6.07-7.62Zm265.15,265.12c3,5.49,7.26,8.83,13.69,8.63ZM951.29,517.4l2.76,0.58c1.3-1.4,3-2.62,3.74-4.27,0.42-1-.39-3.39-1.3-3.84s-3.56.18-4,1C951.64,512.84,951.65,515.2,951.29,517.4ZM995,1868.91c4.27,3.45,9.12,6.13,16,5.9C1005.28,1869.88,1005.28,1869.88,995,1868.91Zm650,346c-8,6-3.24,12.2-4,17.39Zm4.39-23.26-2.83-.6-2.6,18.42,2,0.37ZM1565.68,1593l1.94,2.42,10-9.52-1.85-2Zm-742.4-65.39,2.68-.21,0.64-6.57-7.56,1.06Zm-75.16,199.19,2.18-2.1c-3.76-1.71-3.63-7.58-10-6.58Zm36.61,28.33c-0.17,6.94-.17,6.94,6,6.37Zm90-6.31,10.22,6.91,1-1.38-5.18-8.55ZM1115.25,294.32l-2-8-6.84,6.33Zm503.51-88.26-0.22,2.18,12,1.14,0.23-2.13Zm232.93,259.55c3.43-3.41,3.47-5.67.07-6.44-0.84-.19-2,1-3,1.58ZM1172.11,1985.81l-11.57-4.54C1163.27,1985.85,1167.31,1986.92,1172.11,1985.81Zm-420.8-255.28-0.72,2,6.89,4.26,1.84-5.16ZM1846.62,422.75l-3.13-.42v6.56l1.63,0.17ZM684.22,1073.46c4,2.28,7.33,2.65,7.14-4Zm946.18,1197.49-1.59-.14-3.46,12,2.51,0.6ZM1870.21,567c-2.32,3-2.57,5.69.09,9.05C1873.61,572.7,1874.51,570,1870.21,567Zm197.92,319.56-2,.06c0.7,4.6-2.87,9.5,2,15.47V886.59Zm-2.49,39c1.62-5,1.62-5-1.23-8.45ZM1344,1959.91l-10,.48C1340.92,1964.93,1340.92,1964.93,1344,1959.91ZM2081,961.45c-2.64,1.46-4.29,3.32-1.77,6a3.54,3.54,0,0,0,3.48.1C2085.6,964.77,2083.2,963.09,2081,961.45ZM1780.55,303c-0.78,4.37-.78,4.37,5,8.23ZM1661.4,2133.57l-0.93-.13v8.8h0.93v-8.67Zm-65.08,198.31c-1.68,7.55-1.68,7.55,4,7.68Zm142,131.84c5.47-4,5.47-4-.49-7Zm169.48-1468.9,3.51,8.46,2.88-9.37Zm-829.82,892,0.28-1.83-7.59.89,0,0.93H1078ZM820.06,1480.39c4.82-7.33,4.82-7.33,0-8.44v8.44Zm1057.67,599.47,0.72,9.46C1881.22,2086.47,1882.66,2083.73,1877.73,2079.86ZM1619,2306.41l2.4,1.28,2.45-7.15-1.27-.47ZM690.45,1060.84l-2-.8-1.43,4.2,2.69,0.64ZM1781,2449.5l1.7,0.07v-4.51l-1.36,0Zm95.64-352.16-2.5-.92-1.22,5,1.54,0.56ZM1064.09,350l-1.75-2.07c-1.06,1.3-2.13,2.59-3.11,3.95a5.35,5.35,0,0,0,1.34,1.11C1061.8,352,1062.93,351,1064.09,350Zm72.57,1629.48,1.76-1.36-2.89-3.19-1.15.92Zm197.73-14.49-0.67-1.8c-2.11.69-4.25,1.31-6.3,2.16-0.21.09,0.1,1.46,0.23,3ZM1007.65,793l2.5,1.41,2-5.54-2-.84Zm49.69-418.72-1.77,2.16,5.35,4.29,1.13-1.13Zm3.21,1508.79c-0.56,1.11-1.47,2.35-1.25,2.6a9.75,9.75,0,0,0,2.68,1.63c0.24-.79.82-1.69,0.62-2.35S1061.42,1883.84,1060.54,1883.08Zm946.27-354.31-2.26.08v6.44l1.43,0.11ZM1855,451c-4.63-2.18-6.54-1.76-7.49,3.12Zm-659.09,45.55-1.87-.81-1.87,7.47,1.65,0.4Zm69-311.6-0.75-1.5-5.36,2.64,0.76,1.5Zm-51.14,24.41,0.67,1.59,4.42-2.16-0.54-1.17Zm165.17,1739.52,0.08,2.33,4.17-.4a4.44,4.44,0,0,0-.29-1.58A38.59,38.59,0,0,0,1378.89,1948.89Zm57.22-20.51c2.8,3.22,4.5,4,7.21,0h-7.21ZM1068.46,338.93c1.87,0.23,2.86.65,3.55,0.36s1.23-1.3,1.83-2l-1-1ZM652.21,1560.7l1.64,1.93,4.75-3.67-1-1.43ZM1248,437.6l-1.42-1.74a7.86,7.86,0,0,0-2.46,1.25,8.32,8.32,0,0,0-1.1,2.6l1.6,1ZM959.17,500.34l-1.76-2.66a9.32,9.32,0,0,0-2.64,1.9c-0.25.37,0.77,2.24,1,2.2A16.17,16.17,0,0,0,959.17,500.34Zm963.46,506.52a26.47,26.47,0,0,0-1.28,3.66,2.59,2.59,0,0,0,1.36.91,27.09,27.09,0,0,0,2.29-2.54ZM1866.3,515.51l0.78-1.61-4.14-2.52a18.39,18.39,0,0,0-.87,2.4A41.1,41.1,0,0,0,1866.3,515.51ZM741.15,918.15l-2.35-.13v5.27l1.57,0.05Z"/><path d="M1963.76,1094.69l-11.73-2.9-0.78-9.75c1.65-3.81,8.49.26,7.61-6.08-0.43-3.06-.51-6.18-0.75-9.26l2.07-.43,4.4,13.83,3.92-2.84,1.34,1Z"/><path d="M1666.93,2511.18l11.21-13.51,1.64,0.59-3.38,11.09c5.17,4.44,7.84,10.46,6.68,17.48C1675.25,2524,1664.85,2524,1666.93,2511.18Z"/><path d="M1120.21,637.49c-1.54,4.09-2.67,8.39-4.69,12.23-4.6,8.75-9.64,17.27-15.56,27.76-0.79-3.55-2-5.62-1.37-6.64,6.35-10.83,13-21.51,19.58-32.16,0.35-.57,1.56-0.61,2.37-0.91Z"/><path d="M1032.39,788.68l-19.25,43.63C1012,822.46,1020,804,1032.39,788.68Z"/><path d="M1079,691c-1,4.65-1.39,9.61-3.28,13.88-4.47,10.11-9.68,19.89-14.64,29.86a0.38,0.38,0,0,0,.12-0.09l-3.84.72,0.23,0.23c5.84-11.47,11.73-22.92,17.48-34.43,1.6-3.2,2.77-6.61,4.14-9.93Z"/><path d="M1074,720.05l-16.3,34.67-1-.48c1.47-6.51,2.95-13,4.46-19.59a0.39,0.39,0,0,1-.08,0c2.39,3.87,3.46.42,4.43-1,3-4.4,5.81-9,8.68-13.45Z"/><path d="M1306.28,162.28c-6.15,3.2-11.54,8.84-19.37,6.56C1293.26,166.27,1298.36,160.19,1306.28,162.28Z"/><path d="M1079.24,691.2l11.43-24,0,0c3.53,6.34-2.26,11-3.19,16.48a13.43,13.43,0,0,1-3.67,6.44c-0.89.94-3.09,0.64-4.73,0.86Z"/><path d="M1041,744.09c-2.1-6.6-2.1-6.6,4.25-11.24Z"/><path d="M1659.71,2506.4c1.79,4.48,1.79,4.48-.38,8.44C1654.51,2511.78,1658.89,2509,1659.71,2506.4Z"/><path d="M1074.22,720.24l5.36-15.4c0.56,6.1-.73,11.45-5.58,15.2Z"/><path d="M1671.49,2486.77l-10.08,1.59C1666.81,2484.15,1666.81,2484.15,1671.49,2486.77Z"/><path d="M1150,562.06l5.57-9.39C1158.32,558,1156.8,560.54,1150,562.06Z"/><path d="M673.87,1641.77c2.28,2.73,9.41,1.11,7.21,8.13-4.87-.82-5.9-4.62-7-8.39Z"/><path d="M973.56,1852.8c-4.22,1.9-6.62-1.32-9.43-3.35C968.22,1847.91,971.33,1849.11,973.56,1852.8Z"/><path d="M1945.74,1096.9l2.42-12.15c4.21,5.46-.65,8.79.61,12.74Z"/><path d="M1120.21,637.49l0.34,0.28,2-7.66,2.2,1Z"/><path d="M1808.84,188l-0.63,3-7.32-2.6,0.64-2,4.89,0.89Z" style="fill:#fff"/><path d="M1975.62,1093.69c-5.17-3.41-3.73-6,0-9.54v9.54Z"/><path d="M1571.46,2421.05c-2.47,4.86-3.54,7.76-9.19,5.9Z"/><path d="M1044.65,759.33l3.62-8.85,2,0.84-3.68,8.83Z"/><path d="M1342.58,147.21l-5.9,2.08-0.57-1.8,6-1.81Z"/><path d="M1955.83,1017.82l3.1,5.91-11.06-3.85-0.1.29,8.42-2.08Z"/><path d="M1967.52,1059.23c3.81-.47,6.86-1.52,6.84,4.29Z"/><path d="M1112.15,638.25l-4.31,6.79-1.8-1,3.92-7.32Z"/><path d="M1057.39,735.33c0.57,3.91.18,7.37-5.26,8.33q2.77-4,5.51-8.08Z"/><path d="M1039.58,772.06l-1.17,4.66-1.73-.29,0.52-4.9Z"/><path d="M1662.88,2540.43l2-5,1.63,0.68-2,4.94Z"/><path d="M1494.95,1921.51l5.77-4.13,1.1,1.66-6.07,3.62Z"/><path d="M1981.3,1041.48l5.19-4.62c0.25,1.17.63,1.88,0.42,2.13-1.15,1.43-2.43,2.77-3.7,4.09a0.84,0.84,0,0,1-.78,0A8.67,8.67,0,0,1,1981.3,1041.48Z"/><path d="M2088.87,1066.14l-3.78-5.87,1.31-1,4.25,5.71Z"/><path d="M1962.77,1110.69l-1.59,5.14-1.76-.48,1.35-5.49Z"/><path d="M1696.44,2459.56l-4.34-.71,0.2-1.41,4.38,0.56Z"/><path d="M1651.91,2542.41l-3,3.09,2.33-3.52Z"/><path d="M1924.23,1074.07l-1.93-4.23,1.54-.69,1.94,4.23Z"/><path d="M1090.67,667.16l7.14-6.26c-0.55,4.74-3.33,6.1-7.16,6.3Z"/><path d="M927.62,563.16l5,6.4c-2.86,2.13-6.67,3.54-7.66,6.07-1.32,3.34-1.93,5.36-6,6.73-2.29.78-2.64,6.43-4.49,9.52-1.48,2.47-4.91,4.08-5.64,6.6-0.94,3.25-3.19,4.36-5.09,6.45-4.85,5.33-8.38,11.85-12.66,17.73-2.27,3.12-5,5.9-7.53,8.83l-1.73-1a34.91,34.91,0,0,1,2-5.91c4.66-8.53,9.91-16.77,14.14-25.5,4.49-9.28,4.1-9.47,11.82-12.12C907.27,574.8,917.69,567.2,920,557c6.79-3.38,12.9-2.1,19.08,1.74Z" style="fill:#fff"/><path d="M965.85,487.17c-2.19-6-.88-10.61,3.23-14.93,2-2.1,4.37-4.73,4.67-7.34,0.86-7.39,5.39-12.29,9.85-17.46,3.41-4,6.47-8.21,9.84-12.21a35,35,0,0,1,4.45-3.75c3,2.7-4.05,6.54,1.53,7.95-0.84,1.68-1.24,4.16-2.59,4.89-4.67,2.53-7.2,6.55-9.09,11.15-2.23,5.42-6.2,9.4-10,13.71C973.3,474.15,970.25,480.33,965.85,487.17Z" style="fill:#fff"/><path d="M738.1,938.68a42.79,42.79,0,0,0-3.52,5.46c-0.5,1.08.42,3-.24,3.78-8.82,10-7.57,23.83-13.51,34.89-2.21,4.11-4.3,8.28-6.61,12.74-6.55-3.3-4.53-7.08-2.4-11,3-5.38,8.53-11,8.08-16.14-0.59-6.82,4-10.73,5-16.36,0.67-4,3.82-7.54,5.75-11.34,1.79-3.52,4.5-3.31,7.55-2.12Z" style="fill:#fff"/><path d="M2064.26,984.65l-3.92-2.16,5-26.91c2.48,2,2.3,2.09,1.81,19.24-0.2,6.92-.33,13.85-0.88,20.74-0.57,7.11-1.62,14.19-2.61,22.5l-7.46-11.36c8.21-6.28,8.62-12.28.88-19.26l5.51-.47Z" style="fill:#fff"/><path d="M1609,2390.45l-9.41,6.37c1.84-21.41,8.55-53.13,14-60.54-0.41,4.58-.87,9.16-1.23,13.75s-0.64,9.48-1,14.83l-4.69,3.08,5.7,3.3C1603.53,2374.92,1602.58,2380.25,1609,2390.45Z" style="fill:#fff"/><path d="M1049.32,375.76l-18.54,18.76c-0.51-2.86-1.76-5.33-1-6.35,6.89-9.48,14.08-18.74,21.35-27.94,0.53-.67,2.34-0.33,4-0.52v10.08l-5.84,1v4.94Z" style="fill:#fff"/><path d="M673,1636.38l0.37-5.27-11.9-21.38,6-10-2.08,2.19,10.7,8-4.65,1.89c0.6,7.6,4.56,12.14,9.53,15.63,0.75,6.62-4,7.54-8.25,8.94Z" style="fill:#fff"/><path d="M945.24,530.33l9.08,5.42-16.16,2.63L934.59,550c-4.56-1.69-5.71-4.79-5.06-8.63,0.57-3.35,1.8-6.2,5.9-7.07C938.44,533.68,941.23,532,945.24,530.33Z" style="fill:#fff"/><path d="M657.63,1574.34c1.28,1.9,2.42,3.91,3.86,5.69,1.57,1.94,5.1,4,4.82,5.41-1.06,5.37,5.11.54,4.86,3.92-6.19,2.18-6.64,2-13.24-6.25l-4.85,3.75,5.69,3.19-4.25,6-7.25-12.94c4.25-2.86,10-2.9,10.37-8.78v0Z" style="fill:#fff"/><path d="M703.24,1011.36l8.43,1.93c0.77,5.84-9.22,6.2-4.47,13.35C696.71,1022.69,696.59,1022.15,703.24,1011.36Z" style="fill:#fff"/><path d="M1115.09,1960.15c-0.21,3.73-.44,7,4.82,6.16-1.33.34-3.37,1.39-3.87,0.9-5.78-5.78-13.71-5.23-20.68-7.44-0.84-.27-1.31-1.71-1.05-4.5Z" style="fill:#fff"/><path d="M833.69,1638.88c8.8,0.8,11.57,5.85,11.53,17.86Z" style="fill:#fff"/><path d="M851.45,1680.56l-5.29-2.94-3.58-17.15C849,1664.38,850.81,1668.17,851.45,1680.56Z" style="fill:#fff"/><path d="M941.63,526.31l4.57-7.12c4.21,2.64,9.68,3.26,11.8,9.69C951.43,533.2,947.3,527,941.63,526.31Z" style="fill:#fff"/><path d="M2010.68,1489.84c4.5,4,7.42,6.85,3.64,12.26-1.68,2.4-1.84,5.85-2.7,8.84C2008.33,1507.23,2008.33,1507.23,2010.68,1489.84Z" style="fill:#fff"/><path d="M2021.56,1366.39l5.3-12c5.06,0.66,5.45,3.4,3.95,7.09S2028.47,1369.61,2021.56,1366.39Z" style="fill:#fff"/><path d="M2014.81,1473.24c-0.76-.92-2.36-2.4-2.17-2.68,2.18-3.22,2.26-6,.66-9.82-1.49-3.59,1.6-5.15,5.63-3.91,0,2.26.55,5-.14,7.44-0.92,3.22-2.79,6.17-4.26,9.23Z" style="fill:#fff"/><path d="M1808.82,1346.75l-9.6,11.06C1800.46,1345,1801.55,1343.85,1808.82,1346.75Z" style="fill:#fff"/><path d="M817.79,1518.58l1.35-13.22c7.51,0.32,3.32,7.24,8.8,9.4Z" style="fill:#fff"/><path d="M901.23,1818.41l11.64,16.46c-8.08-2.3-10.77-8.86-13.72-15.22Z" style="fill:#fff"/><path d="M929.87,1848.81c-4.81-5.72-11.81-9.59-14.63-17l1.64-1.45,14.95,16.72Z" style="fill:#fff"/><path d="M1682.5,1878.69l3.64-21.57c1.62,7.9,2.88,15.71-1.76,22.54Z" style="fill:#fff"/><path d="M1226.88,204.88c4.23-6.06,8.78-11.38,19.09-10.41Z" style="fill:#fff"/><path d="M1412.65,1941.53c-5.14,1.42-9.14,6-15,3.44C1401.89,1939.7,1405.86,1938.76,1412.65,1941.53Z" style="fill:#fff"/><path d="M1320.19,1962.27l3.67,7.74-15.54-2.64Z" style="fill:#fff"/><path d="M1790.54,1329.15c2.62,6.5-2.12,8.76-4.13,12.11C1785.91,1336.9,1786.28,1332.88,1790.54,1329.15Z" style="fill:#fff"/><path d="M1204,209.85l6.9,4.2c-4.3,2.86-7.06,6.62-12,5.14l5.4-9.58Z" style="fill:#fff"/><path d="M679.22,1613.21l8.7,3.55-6.07,7.62Z" style="fill:#fff"/><path d="M944.37,1878.33l13.69,8.63C951.63,1887.16,947.35,1883.81,944.37,1878.33Z" style="fill:#fff"/><path d="M951.29,517.4c0.36-2.2.35-4.56,1.25-6.51,0.39-.85,3-1.51,4-1s1.73,2.85,1.3,3.84c-0.71,1.66-2.44,2.87-3.74,4.27Z" style="fill:#fff"/><path d="M995,1868.91c10.27,1,10.27,1,16,5.9C1004.13,1875,999.28,1872.36,995,1868.91Z" style="fill:#fff"/><path d="M1645,2214.94l-4,17.39C1641.73,2227.14,1637,2221,1645,2214.94Z" style="fill:#fff"/><path d="M1649.36,2191.68l-3.41,18.18-2-.37,2.6-18.42Z" style="fill:#fff"/><path d="M1565.68,1593l10.14-9.14,1.85,2-10,9.52Z" style="fill:#fff"/><path d="M823.28,1527.63l-4.24-5.73,7.56-1.06-0.64,6.57Z" style="fill:#fff"/><path d="M748.12,1726.82l-7.87-8.68c6.41-1,6.28,4.88,10,6.58Z" style="fill:#fff"/><path d="M784.73,1755.16l6,6.37C784.56,1762.1,784.56,1762.1,784.73,1755.16Z" style="fill:#fff"/><path d="M874.77,1748.85l6.07-3,5.18,8.55-1,1.38Z" style="fill:#fff"/><path d="M1115.25,294.32l-8.84-1.72,6.84-6.33Z" style="fill:#fff"/><path d="M1618.76,206.06l12,1.18-0.23,2.13-12-1.14Z" style="fill:#fff"/><path d="M1851.69,465.62l-2.93-4.86c1-.57,2.16-1.77,3-1.58C1855.17,459.95,1855.13,462.21,1851.69,465.62Z" style="fill:#fff"/><path d="M1172.11,1985.81c-4.8,1.11-8.84,0-11.57-4.54Z" style="fill:#fff"/><path d="M738.16,938.64L730.59,934l6.67-6c0.34,4.47.58,7.59,0.83,10.7Z" style="fill:#fff"/><path d="M751.31,1730.53l8,1.08-1.84,5.16-6.89-4.26Z" style="fill:#fff"/><path d="M1846.62,422.75l-1.5,6.31-1.63-.17v-6.56Z" style="fill:#fff"/><path d="M1591.63,1567.58l1.32,4.5-7.78,4.19L1584,1575l7.82-7.23Z" style="fill:#fff"/><path d="M684.22,1073.46l7.14-4C691.55,1076.11,688.22,1075.74,684.22,1073.46Z" style="fill:#fff"/><path d="M1630.39,2270.94l-2.54,12.48-2.51-.6,3.46-12Z" style="fill:#fff"/><path d="M1870.21,567c4.3,3,3.4,5.67.09,9.05C1867.65,572.72,1867.89,570,1870.21,567Z" style="fill:#fff"/><path d="M2068.13,886.59v15.52c-4.84-6-1.28-10.86-2-15.47Z" style="fill:#fff"/><path d="M2065.64,925.59l-1.23-8.45C2067.25,920.57,2067.25,920.57,2065.64,925.59Z" style="fill:#fff"/><path d="M1344,1959.91c-3,5-3,5-10,.48Z" style="fill:#fff"/><path d="M2081,961.45c2.17,1.64,4.57,3.33,1.71,6.14a3.54,3.54,0,0,1-3.48-.1C2076.73,964.77,2078.39,962.9,2081,961.45Z" style="fill:#fff"/><path d="M1780.55,303l5,8.23C1779.77,307.41,1779.77,307.41,1780.55,303Z" style="fill:#fff"/><path d="M1661.4,2133.57v8.67h-0.93v-8.8Z" style="fill:#fff"/><path d="M1596.32,2331.88l4,7.68C1594.64,2339.43,1594.64,2339.43,1596.32,2331.88Z" style="fill:#fff"/><path d="M1738.29,2463.72l-0.49-7C1743.77,2459.76,1743.77,2459.76,1738.29,2463.72Z" style="fill:#fff"/><path d="M1907.77,994.82l6.39-.91-2.88,9.37Z" style="fill:#fff"/><path d="M1078,1886.81h-7.34l0-.93,7.59-.89Z" style="fill:#fff"/><path d="M2014.55,1473.5c5.46,4.05-.3,8.43,1.42,12.59l-2.31,0q0.56-6.39,1.14-12.79Z" style="fill:#fff"/><path d="M820.06,1480.39v-8.44C824.88,1473.06,824.88,1473.06,820.06,1480.39Z" style="fill:#fff"/><path d="M1877.73,2079.86c4.93,3.86,3.49,6.61.72,9.46Z" style="fill:#fff"/><path d="M719.85,1711.46l3.17-2.68,3.21,4.67-1.64,1.49-4.91-3.76Z" style="fill:#fff"/><path d="M872.35,1837.19l-9.63-5.53c7.72,0.13,8,.27,9.55,5.56Z" style="fill:#fff"/><path d="M1619,2306.41l3.58-6.34,1.27,0.47-2.45,7.15Z" style="fill:#fff"/><path d="M1956.19,1018.08l-8.42,2.08,3.15-6.08Z" style="fill:#fff"/><path d="M690.45,1060.84l-0.74,4-2.69-.64,1.43-4.2Z" style="fill:#fff"/><path d="M1781,2449.5l0.34-4.4,1.36,0v4.51Z" style="fill:#fff"/><path d="M1591.84,1567.82l4.28-7.15c-0.32,3.18,1.4,8.2-4.48,6.92Z" style="fill:#fff"/><path d="M657.64,1574.31L649,1578c1.61-5.43,5.68-2.36,8.58-3.69v0Z" style="fill:#fff"/><path d="M1876.6,2097.34l-2.18,4.6-1.54-.56,1.22-5Z" style="fill:#fff"/><path d="M1064.09,350c-1.16,1-2.29,2.08-3.53,3a5.35,5.35,0,0,1-1.34-1.11c1-1.36,2.05-2.65,3.11-3.95Z" style="fill:#fff"/><path d="M1136.67,1979.43l-2.28-3.62,1.15-.92,2.89,3.19Z" style="fill:#fff"/><path d="M1334.4,1964.94l-6.73,3.36c-0.14-1.54-.45-2.91-0.23-3,2-.84,4.19-1.47,6.3-2.16Z" style="fill:#fff"/><path d="M1007.65,793l2.43-5,2,0.84-2,5.54Z" style="fill:#fff"/><path d="M1057.34,374.29l4.71,5.32-1.13,1.13-5.35-4.29Z" style="fill:#fff"/><path d="M1060.54,1883.08c0.88,0.76,1.85,1.2,2,1.88s-0.38,1.56-.62,2.35a9.75,9.75,0,0,1-2.68-1.63C1059.08,1885.44,1060,1884.2,1060.54,1883.08Z" style="fill:#fff"/><path d="M2006.82,1528.78l-0.83,6.64-1.43-.11v-6.44Z" style="fill:#fff"/><path d="M1855,451l-7.49,3.12C1848.43,449.25,1850.34,448.84,1855,451Z" style="fill:#fff"/><path d="M872.27,1837.22c3.75-1,7.65-2.33,8.71,4.3-3.19-1.65-5.85-3-8.58-4.37Z" style="fill:#fff"/><path d="M1195.88,496.56l-2.09,7.05-1.65-.4,1.87-7.47Z" style="fill:#fff"/><path d="M1264.86,185l-5.35,2.64-0.76-1.5,5.36-2.64Z" style="fill:#fff"/><path d="M1213.72,209.38l4.55-1.73,0.54,1.17-4.42,2.16Z" style="fill:#fff"/><path d="M1378.89,1948.89a38.59,38.59,0,0,1,4,.35,4.44,4.44,0,0,1,.29,1.58l-4.17.4Z" style="fill:#fff"/><path d="M1436.11,1928.38h7.21C1440.62,1932.39,1438.91,1931.6,1436.11,1928.38Z" style="fill:#fff"/><path d="M1068.46,338.93l4.42-2.68,1,1c-0.6.69-1.07,1.67-1.83,2S1070.33,339.16,1068.46,338.93Z" style="fill:#fff"/><path d="M652.21,1560.7l5.4-3.17,1,1.43-4.75,3.67Z" style="fill:#fff"/><path d="M631.06,1531.91c2.5,1.1,6.22,1.25,4.15,6.42l-4.18-6.42h0Z" style="fill:#fff"/><path d="M1248,437.6l-3.39,3.13-1.6-1a8.32,8.32,0,0,1,1.1-2.6,7.86,7.86,0,0,1,2.46-1.25Z" style="fill:#fff"/><path d="M959.17,500.34a16.17,16.17,0,0,1-3.41,1.44c-0.22,0-1.24-1.84-1-2.2a9.32,9.32,0,0,1,2.64-1.9Z" style="fill:#fff"/><path d="M1922.62,1006.85l2.36,2a27.09,27.09,0,0,1-2.29,2.54,2.59,2.59,0,0,1-1.36-.91A26.47,26.47,0,0,1,1922.62,1006.85Z" style="fill:#fff"/><path d="M1866.3,515.51a41.1,41.1,0,0,1-4.23-1.72,18.4,18.4,0,0,1,.87-2.4l4.14,2.52Z" style="fill:#fff"/><path d="M741.15,918.15l-0.78,5.19-1.57-.05V918Z" style="fill:#fff"/></svg>